<svg width="120" height="40" viewBox="0 0 120 40" fill="none" xmlns="http://www.w3.org/2000/svg">
<path d="M110.135 3.00293e-07H9.53468C9.16798 3.00293e-07 8.80568 3.00119e-07 8.43995 0.0020003C8.1338 0.0040003 7.83009 0.0098103 7.521 0.0147003C6.84951 0.0226021 6.17961 0.0816766 5.5171 0.19141C4.85552 0.303533 4.21467 0.514916 3.61622 0.81841C3.0185 1.12447 2.47235 1.52217 1.99757 1.99707C1.5203 2.47064 1.12246 3.01802 0.81935 3.61816C0.5154 4.21711 0.304641 4.85894 0.19435 5.52148C0.0830109 6.18318 0.0230984 6.85252 0.01515 7.52348C0.00587 7.83008 0.00489 8.1377 0 8.44434V31.5586C0.00489 31.8691 0.00587 32.1699 0.01515 32.4805C0.0231008 33.1514 0.0830134 33.8207 0.19435 34.4824C0.304336 35.1453 0.515108 35.7875 0.81935 36.3867C1.12233 36.9849 1.52022 37.5301 1.99757 38.001C2.47054 38.478 3.01705 38.876 3.61622 39.1797C4.21467 39.484 4.85545 39.6966 5.5171 39.8105C6.17972 39.9194 6.84956 39.9785 7.521 39.9873C7.83009 39.9941 8.1338 39.998 8.43995 39.998C8.80567 40 9.168 40 9.53468 40H110.135C110.494 40 110.859 40 111.219 39.998C111.523 39.998 111.836 39.9941 112.141 39.9873C112.811 39.9789 113.479 39.9198 114.141 39.8105C114.804 39.6958 115.448 39.4833 116.049 39.1797C116.647 38.8758 117.193 38.4778 117.666 38.001C118.142 37.5282 118.541 36.9835 118.848 36.3867C119.15 35.7871 119.358 35.1449 119.467 34.4824C119.578 33.8206 119.64 33.1515 119.652 32.4805C119.656 32.1699 119.656 31.8691 119.656 31.5586C119.664 31.1953 119.664 30.834 119.664 30.4648V9.53613C119.664 9.16992 119.664 8.80664 119.656 8.44434C119.656 8.1377 119.656 7.83008 119.652 7.52344C119.64 6.85242 119.578 6.18324 119.467 5.52144C119.358 4.85928 119.149 4.2175 118.848 3.61812C118.23 2.4152 117.252 1.43603 116.049 0.81832C115.448 0.515568 114.804 0.304241 114.141 0.19132C113.48 0.0811031 112.811 0.0220081 112.141 0.0145603C111.836 0.0096803 111.523 0.0038203 111.219 0.0018703C110.859 -0.0001297 110.494 -0.0001297 110.135 -0.0001297V3.00293e-07Z" fill="#A6A6A6"/>
<path d="M8.44483 39.125C8.14015 39.125 7.84283 39.1211 7.54054 39.1143C6.91432 39.1061 6.28957 39.0516 5.6714 38.9512C5.09499 38.8519 4.5366 38.6673 4.01466 38.4033C3.4975 38.1415 3.02581 37.7983 2.61766 37.3867C2.2036 36.98 1.85888 36.5082 1.59715 35.9902C1.33254 35.4688 1.14941 34.9099 1.05415 34.333C0.951275 33.7131 0.895615 33.0863 0.887651 32.458C0.881311 32.2471 0.873011 31.5449 0.873011 31.5449V8.44434C0.873011 8.44434 0.881851 7.75293 0.887701 7.5498C0.895326 6.92248 0.950663 6.29665 1.05323 5.67773C1.14867 5.09925 1.33194 4.53875 1.59669 4.01563C1.85746 3.49794 2.20027 3.02586 2.61183 2.61768C3.02293 2.20562 3.49613 1.8606 4.01417 1.59521C4.53492 1.33209 5.09225 1.14873 5.66749 1.05127C6.28769 0.949836 6.91461 0.894996 7.543 0.88721L8.44532 0.875H111.214L112.127 0.8877C112.75 0.895099 113.371 0.94945 113.985 1.05029C114.566 1.14898 115.13 1.33362 115.656 1.59814C116.694 2.13299 117.539 2.97916 118.071 4.01807C118.332 4.53758 118.512 5.09351 118.606 5.66699C118.71 6.29099 118.768 6.92174 118.78 7.5542C118.783 7.8374 118.783 8.1416 118.783 8.44434C118.791 8.81934 118.791 9.17627 118.791 9.53613V30.4648C118.791 30.8281 118.791 31.1826 118.783 31.54C118.783 31.8652 118.783 32.1631 118.779 32.4697C118.768 33.0909 118.71 33.7104 118.608 34.3232C118.515 34.9043 118.333 35.4675 118.068 35.9932C117.805 36.5056 117.462 36.9733 117.053 37.3789C116.644 37.7927 116.172 38.1379 115.653 38.4014C115.128 38.6674 114.566 38.8527 113.985 38.9512C113.367 39.0522 112.742 39.1067 112.116 39.1143C111.823 39.1211 111.517 39.125 111.219 39.125L110.135 39.127L8.44483 39.125Z" fill="black"/>
<path fill-rule="evenodd" clip-rule="evenodd" d="M74.6792 29.0761C73.0445 29.0761 71.8482 28.2676 71.7105 27.0361L69.8081 27.036C69.9282 29.2821 71.7876 30.703 74.5415 30.703C77.4849 30.703 79.3354 29.248 79.3354 26.9247C79.3354 25.1083 78.2768 24.0849 75.729 23.4823L74.3608 23.1464C72.7603 22.7509 72.106 22.2343 72.106 21.3564C72.106 20.2548 73.1304 19.498 74.6274 19.498C76.1245 19.498 77.1489 20.246 77.2612 21.4853H79.1372C79.0767 19.3427 77.2778 17.871 74.6538 17.871C72.0025 17.871 70.1353 19.3427 70.1353 21.4853C70.1353 23.2158 71.1939 24.2822 73.4741 24.833L75.0835 25.2207C76.6929 25.6162 77.3726 26.1933 77.3726 27.1572C77.3726 28.2675 76.2456 29.0761 74.6792 29.0761ZM42.3023 27.1397H37.5689L36.4321 30.4961H34.4273L38.9107 18.0781H40.9937L45.4771 30.4961H43.438L42.3023 27.1397ZM38.0591 25.5908H41.8111L39.9615 20.1436H39.9097L38.0591 25.5908ZM51.3814 30.5908C53.6538 30.5908 55.1597 28.7832 55.1597 25.9697C55.1597 23.1641 53.645 21.3477 51.3472 21.3477C50.1648 21.3095 49.0572 21.9245 48.4644 22.9482H48.4302V21.4424H46.6313V33.4912H48.4897V29.0068H48.5327C49.1003 30.037 50.2068 30.6523 51.3814 30.5908ZM53.2495 25.9697C53.2495 24.1367 52.3023 22.9316 50.8569 22.9316C49.437 22.9316 48.4819 24.1621 48.4819 25.9697C48.4819 27.794 49.437 29.0156 50.8569 29.0156C52.3023 29.0156 53.2495 27.8193 53.2495 25.9697ZM61.3462 30.5908C63.6187 30.5908 65.1245 28.7832 65.1245 25.9697C65.1245 23.1641 63.6099 21.3477 61.312 21.3477C60.1296 21.3095 59.022 21.9245 58.4292 22.9482H58.395V21.4424H56.5962V33.4912H58.4546V29.0068H58.4976C59.0652 30.037 60.1716 30.6523 61.3462 30.5908ZM63.2144 25.9697C63.2144 24.1367 62.2671 22.9316 60.8218 22.9316C59.4019 22.9316 58.4468 24.1621 58.4468 25.9697C58.4468 27.794 59.4019 29.0156 60.8218 29.0156C62.2671 29.0156 63.2144 27.8193 63.2144 25.9697ZM83.3462 19.2998V21.4424H85.0679V22.9141H83.3462V27.9053C83.3462 28.6807 83.6909 29.042 84.4478 29.042C84.6522 29.0384 84.8562 29.0241 85.0591 28.999V30.4619C84.7188 30.5255 84.373 30.5543 84.0269 30.5478C82.1939 30.5478 81.479 29.8593 81.479 28.1035V22.9141H80.1626V21.4424H81.479V19.2998H83.3462ZM90.3589 21.3311C87.7427 21.3311 86.065 23.1211 86.065 25.9697C86.065 28.8262 87.7261 30.6084 90.3589 30.6084C92.9927 30.6084 94.6539 28.8262 94.6539 25.9697C94.6539 23.1211 92.9839 21.3311 90.3589 21.3311ZM92.7603 25.9697C92.7603 24.0156 91.8648 22.8623 90.3589 22.8623C88.8531 22.8623 87.9585 24.0244 87.9585 25.9697C87.9585 27.9316 88.8531 29.0762 90.3589 29.0762C91.8648 29.0762 92.7603 27.9316 92.7603 25.9697H92.7603ZM97.9585 21.4424H96.1861L96.1861 30.4961H98.0444V25.126C97.9826 24.5827 98.1613 24.0395 98.5336 23.639C98.9059 23.2385 99.4346 23.0208 99.981 23.043C100.264 23.0347 100.546 23.0726 100.816 23.1553V21.417C100.607 21.3702 100.393 21.3469 100.179 21.3476C99.1577 21.3086 98.2487 21.9914 98.0015 22.9834H97.9585V21.4424ZM109.384 27.8369C109.134 29.4805 107.534 30.6084 105.486 30.6084C102.852 30.6084 101.217 28.8437 101.217 26.0127C101.217 23.1729 102.861 21.3311 105.408 21.3311C107.913 21.3311 109.488 23.0518 109.488 25.7969V26.4336H103.093V26.5459C103.034 27.2199 103.266 27.8871 103.732 28.3778C104.198 28.8684 104.853 29.1352 105.529 29.1103C106.431 29.1948 107.281 28.677 107.62 27.8369L109.384 27.8369ZM107.628 25.1348H103.102C103.1 24.5235 103.343 23.9369 103.776 23.5054C104.209 23.0739 104.796 22.8333 105.408 22.8369C106.014 22.8239 106.599 23.0644 107.02 23.5006C107.442 23.9368 107.662 24.5291 107.628 25.1348Z" fill="white"/>
<path fill-rule="evenodd" clip-rule="evenodd" d="M59.0938 8.437H59.9824V14.6977H59.0938V8.437ZM39.9318 9.54887C39.3879 8.97455 38.6151 8.67438 37.8262 8.731H35.6709V14.6978H37.8262C39.6035 14.6978 40.6338 13.6021 40.6338 11.6958C40.7333 10.9111 40.4756 10.1232 39.9318 9.54887ZM37.7227 13.854H36.5977V9.57421H37.7227C38.2835 9.54309 38.8289 9.76422 39.2097 10.1771C39.5905 10.59 39.7668 11.1515 39.6904 11.708C39.7728 12.2668 39.599 12.8329 39.2172 13.2493C38.8355 13.6656 38.2865 13.8877 37.7227 13.854ZM41.6807 12.4443C41.6035 11.6372 41.9905 10.8561 42.6794 10.4286C43.3683 10.0011 44.2401 10.0011 44.929 10.4286C45.6179 10.8561 46.005 11.6372 45.9278 12.4443C46.0064 13.2523 45.6198 14.035 44.9302 14.4634C44.2407 14.8918 43.3677 14.8918 42.6782 14.4634C41.9887 14.035 41.602 13.2523 41.6807 12.4443ZM43.8057 10.8975C44.5752 10.8975 45.0137 11.4683 45.0137 12.4443H45.0137C45.0137 13.4243 44.5752 13.9946 43.8057 13.9946C43.0333 13.9946 42.5987 13.4282 42.5987 12.4444C42.5987 11.4683 43.0332 10.8975 43.8057 10.8975ZM51.5733 14.6978H50.6514L49.7207 11.3813H49.6504L48.7237 14.6978H47.8106L46.5694 10.1948H47.4707L48.2774 13.6308H48.3438L49.2696 10.1948H50.1221L51.0479 13.6308H51.1182L51.9209 10.1948H52.8096L51.5733 14.6978ZM54.709 10.1948H53.8535L53.8535 14.6978H54.7422V12.0635C54.7103 11.7638 54.8109 11.4652 55.0176 11.2458C55.2242 11.0265 55.5164 10.9083 55.8174 10.9224C56.4746 10.9224 56.7891 11.2822 56.7891 12.0059V14.6977H57.6778V11.7827C57.7429 11.3424 57.6043 10.8964 57.3011 10.5706C56.9979 10.2448 56.563 10.0745 56.1192 10.1079C55.546 10.0613 55.0063 10.3835 54.7754 10.9102H54.709V10.1948ZM62.2167 10.4285C61.5277 10.856 61.1406 11.6372 61.2178 12.4443C61.1392 13.2524 61.5259 14.035 62.2155 14.4634C62.9051 14.8918 63.778 14.8918 64.4676 14.4634C65.1572 14.035 65.5439 13.2524 65.4654 12.4443C65.5425 11.6372 65.1554 10.856 64.4664 10.4285C63.7775 10.001 62.9057 10.001 62.2167 10.4285ZM64.5508 12.4443C64.5508 11.4683 64.1123 10.8975 63.3428 10.8975C62.5703 10.8975 62.1358 11.4683 62.1358 12.4444C62.1358 13.4282 62.5704 13.9946 63.3428 13.9946C64.1123 13.9946 64.5508 13.4243 64.5508 12.4443ZM68.0757 12.0801C67.0044 12.1465 66.4009 12.6138 66.4009 13.4243C66.4024 13.8086 66.5664 14.1744 66.8524 14.4312C67.1384 14.6879 67.5196 14.8117 67.9019 14.772C68.4472 14.7972 68.9639 14.5271 69.2544 14.065H69.3247V14.6978H70.1802V11.6211C70.1802 10.6699 69.5435 10.1079 68.4146 10.1079C67.3931 10.1079 66.6656 10.604 66.5747 11.3775H67.4351C67.5337 11.0591 67.8775 10.877 68.3736 10.877C68.981 10.877 69.2954 11.1455 69.2954 11.6211V12.0098L68.0757 12.0801ZM69.2954 13.0396V12.6631L68.1958 12.7334C67.5757 12.7749 67.2945 12.9858 67.2945 13.3828C67.2945 13.7881 67.646 14.0239 68.1295 14.0239C68.4156 14.0529 68.7013 13.9645 68.9211 13.7789C69.1409 13.5934 69.276 13.3265 69.2954 13.0396ZM73.2173 10.1201C72.0796 10.1201 71.3482 11.0215 71.3482 12.4443C71.3482 13.8706 72.0718 14.772 73.2173 14.772C73.7981 14.7934 74.3428 14.4907 74.6314 13.9863H74.7017V14.6977H75.5532V8.437H74.6646V10.9101H74.5982C74.3298 10.4015 73.7918 10.0937 73.2173 10.1201ZM72.2662 12.4443C72.2662 13.3994 72.7164 13.9741 73.4693 13.9741C74.2183 13.9741 74.6812 13.3911 74.6812 12.4483C74.6812 11.5098 74.2134 10.9185 73.4693 10.9185C72.7212 10.9185 72.2661 11.4971 72.2661 12.4443H72.2662ZM80.2287 10.4286C79.5398 10.8561 79.1528 11.6372 79.23 12.4443C79.1513 13.2523 79.538 14.035 80.2275 14.4634C80.9171 14.8918 81.79 14.8918 82.4795 14.4634C83.1691 14.035 83.5558 13.2523 83.4771 12.4443C83.5543 11.6372 83.1673 10.8561 82.4783 10.4286C81.7894 10.0011 80.9177 10.0011 80.2287 10.4286ZM82.563 12.4443C82.563 11.4683 82.1245 10.8975 81.355 10.8975C80.5825 10.8975 80.148 11.4683 80.148 12.4444C80.148 13.4282 80.5826 13.9946 81.355 13.9946C82.1245 13.9946 82.563 13.4243 82.563 12.4443ZM85.5249 10.1948H84.6695V14.6978H85.5581V12.0635C85.5262 11.7638 85.6268 11.4652 85.8335 11.2458C86.0401 11.0265 86.3323 10.9083 86.6333 10.9224C87.2906 10.9224 87.605 11.2822 87.605 12.0059V14.6977H88.4937V11.7827C88.5588 11.3424 88.4202 10.8964 88.117 10.5706C87.8138 10.2448 87.3789 10.0745 86.9351 10.1079C86.3619 10.0613 85.8223 10.3835 85.5913 10.9102H85.5249V10.1948ZM93.5152 9.07373V10.2153H94.4908V10.9639H93.5152V13.2793C93.5152 13.751 93.7095 13.9575 94.1519 13.9575C94.2651 13.9572 94.3783 13.9503 94.4908 13.937V14.6772C94.3312 14.7058 94.1695 14.721 94.0074 14.7227C93.0191 14.7227 92.6255 14.375 92.6255 13.5068V10.9638H91.9107V10.2153H92.6255V9.07373H93.5152ZM96.5855 8.437H95.7046L95.7047 14.6977H96.5933V12.0679C96.5658 11.7589 96.6761 11.4535 96.8947 11.2334C97.1133 11.0133 97.4179 10.9009 97.7271 10.9263C98.355 10.9263 98.69 11.2905 98.69 12.0098V14.6978H99.5796V11.7905C99.6384 11.3525 99.4989 10.9111 99.199 10.5864C98.8991 10.2618 98.4701 10.0878 98.0288 10.1118C97.4469 10.0646 96.8978 10.3872 96.6558 10.9185H96.5855V8.437ZM104.761 13.4819C104.512 14.3313 103.69 14.8801 102.81 14.7847C102.21 14.8005 101.633 14.5516 101.232 14.1041C100.831 13.6565 100.648 13.0555 100.73 12.4605C100.65 11.8638 100.833 11.2618 101.231 10.8104C101.63 10.3591 102.204 10.1028 102.806 10.1079C104.059 10.1079 104.815 10.9639 104.815 12.3779V12.688H101.635V12.7378C101.607 13.0719 101.721 13.4024 101.95 13.648C102.178 13.8936 102.499 14.0315 102.834 14.0278C103.269 14.08 103.692 13.8643 103.906 13.4819L104.761 13.4819ZM103.91 12.0308H101.635C101.631 11.7203 101.753 11.4213 101.972 11.2016C102.192 10.982 102.491 10.8604 102.801 10.8643C103.108 10.8572 103.403 10.9799 103.614 11.2021C103.825 11.4242 103.932 11.7252 103.91 12.0308Z" fill="white"/>
<path fill-rule="evenodd" clip-rule="evenodd" d="M23.1518 8.72027C23.2486 9.9845 22.8488 11.2367 22.0372 12.2109C21.2499 13.1902 20.0569 13.7542 18.8005 13.7413C18.7206 12.5134 19.132 11.3042 19.9442 10.3799C20.7667 9.44305 21.9119 8.85049 23.1518 8.72027ZM27.1254 16.1486C25.6801 17.0372 24.7907 18.6042 24.7689 20.3007C24.7709 22.22 25.9204 23.9522 27.6881 24.6998C27.3481 25.8043 26.8357 26.848 26.1697 27.7924C25.2753 29.1303 24.3376 30.4373 22.8492 30.4615C22.1413 30.4778 21.6635 30.2743 21.1656 30.0622C20.6462 29.8409 20.1051 29.6104 19.2582 29.6104C18.36 29.6104 17.7946 29.8484 17.2493 30.0779C16.778 30.2762 16.3218 30.4682 15.6788 30.4949C14.2613 30.5474 13.1781 29.0669 12.2512 27.7416C10.3985 25.035 8.95596 20.1139 10.89 16.7655C11.7981 15.1335 13.4962 14.0979 15.3629 14.0376C16.1668 14.0211 16.9382 14.3309 17.6145 14.6026C18.1318 14.8104 18.5934 14.9958 18.9714 14.9958C19.3037 14.9958 19.7524 14.8177 20.2753 14.6101C21.0991 14.2832 22.1071 13.8831 23.1343 13.9909C24.7304 14.0409 26.2095 14.8405 27.1254 16.1486Z" fill="white"/>
</svg>
