<svg width="111" height="40" viewBox="0 0 111 40" fill="none" xmlns="http://www.w3.org/2000/svg">
<rect x="0.294861" y="0.294872" width="110.192" height="39.4231" fill="black"/>
<path fill-rule="evenodd" clip-rule="evenodd" d="M110.769 40H0V0H110.769V40ZM110.192 0.576923H0.576923V39.4231H110.192V0.576923Z" fill="#D2D2D2"/>
<path fill-rule="evenodd" clip-rule="evenodd" d="M98.6923 24.8205V29C98.6923 29.8718 98.8974 30.5128 99.2949 30.9487C99.6923 31.3846 100.308 31.5897 101.115 31.5897C101.385 31.5897 101.667 31.5641 101.949 31.5C102.231 31.4359 102.436 31.3846 102.551 31.3077V29.7179C102.436 29.7949 102.295 29.859 102.141 29.9103C101.987 29.9615 101.846 29.9872 101.744 29.9872C101.359 29.9872 101.064 29.8846 100.885 29.6795C100.705 29.4744 100.615 29.1154 100.615 28.6154V24.8077H102.564V23.2436H100.628V20.8333L98.7051 21.4231V23.2564H95.8461V22.2692C95.8461 21.7821 95.9487 21.4103 96.1667 21.1538C96.3846 20.8974 96.6923 20.7821 97.0897 20.7821C97.2949 20.7821 97.4743 20.8077 97.641 20.859C97.7949 20.9103 97.9102 20.9615 97.9743 21V19.3462C97.8333 19.2949 97.6795 19.2692 97.5 19.2436C97.3205 19.2179 97.1154 19.2051 96.8846 19.2051C96.0128 19.2051 95.2949 19.4744 94.7436 20.0256C94.1923 20.5769 93.9102 21.2692 93.9102 22.1282V23.2564H92.5513V24.8205H93.9102V31.3974H95.8461V24.8205H98.6923ZM52.3461 20.8974C52.3461 20.5769 52.4615 20.3205 52.6923 20.1026C52.9231 19.8846 53.1923 19.7821 53.5128 19.7821C53.8461 19.7821 54.1282 19.8974 54.3461 20.1154C54.5641 20.3333 54.6795 20.6026 54.6795 20.8974C54.6795 21.2051 54.5641 21.4744 54.3333 21.6795C54.1026 21.8974 53.8333 22 53.5 22C53.1667 22 52.8974 21.8974 52.6667 21.6795C52.4615 21.4615 52.3461 21.2051 52.3461 20.8974ZM54.4615 31.3846H52.5513V23.2436H54.4615V31.3846ZM61.2308 29.7949C60.8846 29.9231 60.5641 29.9872 60.282 29.9872C59.5128 29.9872 58.9102 29.7692 58.4615 29.3077C58.0128 28.8462 57.7949 28.2051 57.7949 27.3846C57.7949 26.5513 58.0256 25.8846 58.4872 25.3974C58.9615 24.9103 59.5641 24.6667 60.3205 24.6667C60.641 24.6667 60.9615 24.7308 61.2692 24.8462C61.5769 24.9615 61.8846 25.1282 62.1795 25.3462V23.5128C61.9615 23.3974 61.6795 23.2821 61.3077 23.1923C60.9359 23.1026 60.5769 23.0513 60.2179 23.0513C58.8077 23.0513 57.7308 23.4744 56.9615 24.3205C56.1923 25.1667 55.8077 26.2436 55.8077 27.5513C55.8077 28.7179 56.1795 29.6923 56.9359 30.4487C57.6923 31.2051 58.6667 31.5897 59.859 31.5897C60.3205 31.5897 60.7564 31.5385 61.141 31.4487C61.5256 31.359 61.8718 31.2308 62.1795 31.0513V29.2692C61.8846 29.4872 61.5769 29.6667 61.2308 29.7949ZM67.6282 23.1154C67.782 23.1154 67.9231 23.1282 68.0385 23.141C68.1538 23.1667 68.2692 23.1923 68.3461 23.2179V25.1538C68.2436 25.0769 68.1026 25.0128 67.9102 24.9487C67.7179 24.8846 67.4872 24.8462 67.2051 24.8462C66.7308 24.8462 66.3333 25.0385 66.0128 25.4359C65.6923 25.8333 65.5256 26.4359 65.5256 27.2692V31.3846H63.6154V23.2436H65.5256V24.5256H65.5513C65.7308 24.0769 65.9872 23.7308 66.3461 23.4872C66.7051 23.2436 67.1282 23.1154 67.6282 23.1154ZM69.5897 24.2308C68.8333 25.0256 68.4487 26.0897 68.4487 27.4359C68.4487 28.7179 68.8205 29.7308 69.5769 30.4615C70.3077 31.2051 71.3205 31.5769 72.5769 31.5769C73.8846 31.5769 74.9231 31.1923 75.6795 30.4103C76.4359 29.6282 76.8205 28.5769 76.8205 27.2564C76.8205 25.9744 76.4615 24.9487 75.7436 24.1923C75.0256 23.4359 74.0256 23.0513 72.7564 23.0513C71.4102 23.0513 70.3461 23.4487 69.5897 24.2308ZM70.4487 27.3718C70.4487 28.2179 70.641 28.8718 71.0256 29.3205C71.4102 29.7692 71.9615 29.9872 72.6795 29.9872C73.3718 29.9872 73.9102 29.7692 74.2692 29.3205C74.6282 28.8718 74.8205 28.2051 74.8205 27.3205C74.8205 26.4487 74.6282 25.7821 74.2564 25.3333C73.8846 24.8846 73.3461 24.6667 72.6667 24.6667C71.9615 24.6667 71.4231 24.8974 71.0256 25.3718C70.641 25.8462 70.4487 26.5 70.4487 27.3718ZM79.9231 26.0256C79.7564 25.8718 79.6667 25.6538 79.6667 25.3846C79.6667 25.141 79.7692 24.9359 79.9872 24.7949C80.1795 24.6538 80.4744 24.5769 80.8333 24.5769C81.1538 24.5769 81.5 24.641 81.8333 24.7564C82.1667 24.8846 82.4615 25.0256 82.7179 25.1923V23.3718C82.4872 23.2692 82.1923 23.1923 81.8333 23.1282C81.4744 23.0641 81.1538 23.0385 80.8718 23.0385C79.9359 23.0385 79.1795 23.2692 78.6026 23.7436C78.0256 24.2179 77.7308 24.8205 77.7308 25.5513C77.7308 26.1154 77.8846 26.5897 78.1795 26.9615C78.4744 27.3333 78.9744 27.6667 79.6795 27.9615C80.282 28.1923 80.6795 28.4103 80.8974 28.5897C81.1154 28.7692 81.2179 28.9872 81.2179 29.2564C81.2179 29.5513 81.1154 29.7564 80.9102 29.8718C80.7051 29.9872 80.3846 30.0513 79.9487 30.0513C79.6282 30.0513 79.2564 29.9744 78.859 29.8333C78.4487 29.6923 78.0769 29.5 77.7308 29.2564V31.141C78.0128 31.2564 78.359 31.3718 78.7692 31.4487C79.1795 31.5385 79.5513 31.5769 79.8846 31.5769C80.8846 31.5769 81.6795 31.3462 82.2692 30.8846C82.859 30.4231 83.1538 29.8077 83.1538 29.0385C83.1538 28.5 83 28.0385 82.6923 27.6538C82.3846 27.2692 81.8461 26.9231 81.0769 26.6154C80.4872 26.3718 80.1026 26.1795 79.9231 26.0256ZM84 27.4359C84 26.0897 84.3846 25.0256 85.141 24.2308C85.8974 23.4487 86.9615 23.0513 88.3077 23.0513C89.5769 23.0513 90.5769 23.4359 91.2949 24.1923C92.0128 24.9487 92.3718 25.9744 92.3718 27.2564C92.3718 28.5769 91.9872 29.6282 91.2308 30.4103C90.4743 31.1923 89.4359 31.5769 88.1282 31.5769C86.8718 31.5769 85.859 31.2051 85.1282 30.4615C84.3718 29.7308 84 28.7179 84 27.4359ZM86.5641 29.3205C86.1795 28.8718 85.9872 28.2179 85.9872 27.3718C85.9872 26.5 86.1795 25.8462 86.5641 25.3718C86.9615 24.8974 87.5 24.6667 88.2051 24.6667C88.8846 24.6667 89.4231 24.8846 89.7949 25.3333C90.1667 25.7821 90.359 26.4487 90.359 27.3205C90.359 28.2051 90.1667 28.8718 89.8077 29.3205C89.4487 29.7692 88.9102 29.9872 88.2179 29.9872C87.5 29.9872 86.9487 29.7692 86.5641 29.3205ZM50.7051 31.3846V20.0256H48L44.5513 28.4487H44.5L41.2308 20.0256H38.4102V31.3846H40.2308V22.4872H40.2564L43.8718 31.3846H45.1795L48.7051 22.4872H48.7308V31.3846H50.7051Z" fill="white"/>
<path fill-rule="evenodd" clip-rule="evenodd" d="M66.9487 9.0641C67.141 9.0641 67.3077 9.11539 67.4615 9.19231H67.4744V8.38462C67.3205 8.32051 67.1282 8.29487 66.8718 8.29487C66.359 8.29487 65.9615 8.44872 65.6667 8.75641C65.3718 9.0641 65.2308 9.47436 65.2308 9.98718V10.7308H64.4103V11.5H65.2308V15.5641H66.1667V11.4872H67.2692V10.7179H66.1667V10.0256C66.1667 9.38462 66.4231 9.0641 66.9487 9.0641ZM57.3974 9.01282C57.3974 9.16667 57.3462 9.29487 57.2308 9.41026C57.1154 9.52564 56.9744 9.57692 56.8077 9.57692C56.641 9.57692 56.5 9.52564 56.3846 9.41026C56.2692 9.30769 56.218 9.16667 56.218 9C56.218 8.83333 56.2821 8.69231 56.3974 8.58974C56.5128 8.48718 56.6539 8.42308 56.8077 8.42308C56.9615 8.42308 57.1026 8.47436 57.218 8.58974C57.3462 8.71795 57.3974 8.84615 57.3974 9.01282ZM41.2821 15.6923C42.141 15.6923 42.9103 15.5 43.5898 15.1154V11.9615H41.1923V12.8077H42.641V14.5641C42.2821 14.7564 41.859 14.8462 41.3846 14.8462C40.641 14.8462 40.0513 14.6154 39.6282 14.141C39.2051 13.6667 38.9872 13.0256 38.9872 12.2179C38.9872 11.7051 39.0898 11.2436 39.2949 10.8333C39.5 10.4359 39.7949 10.1154 40.1795 9.88462C40.5641 9.65385 40.9872 9.53846 41.4615 9.53846C42.2564 9.53846 42.9103 9.70513 43.4231 10.0513V9.02564C43.2051 8.92308 42.9231 8.83333 42.5769 8.76923C42.2308 8.70513 41.8846 8.66667 41.5385 8.66667C40.8462 8.66667 40.2308 8.82051 39.6795 9.12821C39.1282 9.4359 38.7051 9.8718 38.4103 10.4103C38.1154 10.9487 37.9615 11.5769 37.9615 12.2692C37.9615 12.9231 38.1026 13.5128 38.3718 14.0385C38.641 14.5641 39.0385 14.9744 39.5385 15.2564C40.0513 15.5513 40.6282 15.6923 41.2821 15.6923ZM45.7564 13.4103H49.1026V12.9359C49.1026 12.2051 48.9231 11.641 48.5641 11.2308C48.2051 10.8205 47.7051 10.6154 47.0769 10.6154C46.6539 10.6154 46.2564 10.7308 45.9103 10.9487C45.5641 11.1667 45.2821 11.4744 45.0898 11.8718C44.8974 12.2564 44.7949 12.7051 44.7949 13.1923C44.7949 13.9872 45 14.6026 45.3974 15.0385C45.7949 15.4744 46.3718 15.6923 47.1026 15.6923C47.4103 15.6923 47.718 15.6538 48.0128 15.5769C48.3077 15.5 48.5513 15.3846 48.7436 15.2564V14.4359C48.3077 14.7692 47.8077 14.9359 47.2308 14.9359C46.7949 14.9359 46.4487 14.7949 46.1795 14.5385C45.9231 14.2692 45.7692 13.8974 45.7564 13.4103ZM48.1795 12.6795C48.1795 12.2564 48.0769 11.9359 47.8846 11.7179C47.6923 11.5 47.4231 11.3846 47.0641 11.3846C46.7436 11.3846 46.4615 11.5 46.218 11.7308C45.9744 11.9615 45.8333 12.2821 45.7564 12.6795H48.1795ZM52.3846 15.641C52.5513 15.6154 52.6667 15.5769 52.7564 15.5256H52.7436V14.7436C52.6026 14.8462 52.4359 14.8974 52.2564 14.8974C51.9872 14.8974 51.8077 14.8333 51.7051 14.7051C51.6026 14.5769 51.5513 14.3462 51.5513 14.0256V11.4872H52.7436V10.7179H51.5513V9.28205L50.6154 9.57692V10.7308H49.7949V11.5H50.6154V14.1923C50.6154 15.1795 51.0641 15.6795 51.9615 15.6795C52.0898 15.6795 52.2308 15.6667 52.3846 15.641ZM56.3333 15.5769H57.2692V10.7308H56.3333V15.5769ZM61.3333 15.5256C61.2436 15.5769 61.1282 15.6154 60.9615 15.641C60.8077 15.6667 60.6667 15.6795 60.5385 15.6795C59.641 15.6795 59.1923 15.1795 59.1923 14.1923V11.5H58.3718V10.7308H59.1923V9.57692L60.1282 9.28205V10.7179H61.3205V11.4872H60.1282V14.0256C60.1282 14.3462 60.1795 14.5769 60.2821 14.7051C60.3846 14.8333 60.5641 14.8974 60.8333 14.8974C61.0128 14.8974 61.1795 14.8462 61.3205 14.7436V15.5256H61.3333ZM70.9103 11.6667C70.9063 11.6637 70.902 11.6607 70.8974 11.6577V10.7051C70.7949 10.6667 70.641 10.641 70.4487 10.641C70.1667 10.641 69.9103 10.7308 69.6923 10.9231C69.4744 11.1154 69.3077 11.3718 69.2051 11.7051H69.1795V10.7308H68.2436V15.5769H69.1795V13.1026C69.1795 12.6282 69.2821 12.2436 69.4872 11.9487C69.6923 11.6538 69.9615 11.5 70.2949 11.5C70.3745 11.5 70.4744 11.5202 70.5854 11.5427L70.6282 11.5513C70.7465 11.5868 70.8429 11.6223 70.8974 11.6577V11.6667H70.9103ZM75.5769 15C76.0257 14.5385 76.2564 13.9103 76.2564 13.1282C76.2564 12.3462 76.0513 11.7308 75.6154 11.2821C75.2051 10.8333 74.6282 10.6154 73.8974 10.6154C73.1154 10.6154 72.5 10.8462 72.0513 11.3077C71.6026 11.7692 71.3718 12.3974 71.3718 13.2051C71.3718 13.9615 71.5898 14.5641 72.0257 15.0128C72.4615 15.4615 73.0513 15.6923 73.7821 15.6923C74.5257 15.6923 75.1282 15.4615 75.5769 15ZM75.2949 13.1538C75.2949 12.5769 75.1667 12.141 74.9231 11.8462C74.6667 11.5513 74.3205 11.3974 73.859 11.3974C73.3974 11.3974 73.0257 11.5513 72.7564 11.8718C72.4872 12.1795 72.359 12.6282 72.359 13.1923C72.359 13.7436 72.4872 14.1667 72.7564 14.4744C73.0257 14.7821 73.3846 14.9359 73.859 14.9359C74.3333 14.9359 74.6923 14.7821 74.9359 14.4872C75.1667 14.1667 75.2949 13.7308 75.2949 13.1538ZM83.6923 15.5769H84.6154V12.5769C84.6154 11.2564 84.0898 10.6026 83.0257 10.6026C82.6667 10.6026 82.359 10.6923 82.0898 10.8462C81.8205 11.0128 81.6026 11.2564 81.4103 11.5897C81.2949 11.2821 81.1154 11.0385 80.8718 10.8718C80.6154 10.7051 80.3333 10.6154 80.0257 10.6154C79.3718 10.6154 78.859 10.8974 78.5128 11.4872H78.5V10.7308H77.5641V15.5897H78.5V12.8462C78.5 12.4231 78.6026 12.0769 78.8077 11.8077C79.0128 11.5385 79.2821 11.3974 79.6026 11.3974C80.2821 11.3974 80.6282 11.8462 80.6282 12.7308V15.5769H81.5641V12.8333C81.5641 12.4487 81.6667 12.1026 81.8846 11.8205C82.0898 11.5385 82.359 11.3974 82.6667 11.3974C83.0385 11.3974 83.3077 11.5 83.4615 11.7308C83.6154 11.9615 83.6923 12.3205 83.6923 12.8205V15.5769Z" fill="white"/>
<rect x="9.03845" y="8.79487" width="10.7436" height="10.7436" fill="#F25022"/>
<rect x="20.8974" y="8.79487" width="10.7436" height="10.7436" fill="#7FBA00"/>
<rect x="9.03845" y="20.641" width="10.7436" height="10.7436" fill="#00A4EF"/>
<rect x="20.8974" y="20.641" width="10.7436" height="10.7436" fill="#FFB900"/>
</svg>
