<?xml version="1.0"?>
<svg xmlns="http://www.w3.org/2000/svg" viewBox="0 0 512 512" width="30" height="30"><g id="Outline"><path d="M134.588,384a22.412,22.412,0,0,0-22.557,24.7A25.684,25.684,0,0,0,137.412,432a22.412,22.412,0,0,0,22.557-24.7A25.684,25.684,0,0,0,134.588,384Zm7.8,29.933a6.631,6.631,0,0,1-4.98,2.067,9.819,9.819,0,0,1-9.443-8.7,6.746,6.746,0,0,1,1.639-5.23,6.631,6.631,0,0,1,4.98-2.067,9.819,9.819,0,0,1,9.443,8.7A6.746,6.746,0,0,1,142.392,413.933Z"/><path d="M424.122,288A7.949,7.949,0,0,0,432,280v-8a64.072,64.072,0,0,1,64-64V192a80.091,80.091,0,0,0-80,80v.57a55.576,55.576,0,0,0-19.6,6.726l-11.643-3.106-.036-.007-2.784-.743a8.009,8.009,0,0,1-5-3.965,63.077,63.077,0,0,0,15.82-13.159A63.72,63.72,0,0,0,408,216.549V176a32,32,0,1,0,0-64s-.036-42.32-.065-42.766c0-.022,0-.044,0-.065a49.093,49.093,0,0,0-1.375-9.839L406.5,59.1l-.015,0A56.087,56.087,0,0,0,352,16H256a8,8,0,0,0-8,8V48a31.791,31.791,0,0,0,3.008,13.524A55.047,55.047,0,0,0,248,80v32a32,32,0,0,0,0,64v40.553a63.715,63.715,0,0,0,15.239,41.771,63.055,63.055,0,0,0,15.816,13.153,8,8,0,0,1-4.991,3.963l-2.82.75h-.006l-69.669,18.58A56.256,56.256,0,0,0,168.02,320H38.417a22.416,22.416,0,0,0-21.883,27.28l31.36,136.307A16,16,0,0,0,63.487,496H488a8,8,0,0,0,8-8V348.88a55.69,55.69,0,0,0-16.56-39.739A24,24,0,0,0,480,304v-8a16.019,16.019,0,0,1,16-16V264a32.036,32.036,0,0,0-32,32v8a8.032,8.032,0,0,1-8.03,8A24.027,24.027,0,0,0,432,336v8H384V328A40.045,40.045,0,0,1,424.122,288ZM320.411,117.47,306.234,160h-9.671a7.987,7.987,0,0,1-6.657-3.562l-24-36A201.716,201.716,0,0,0,290.331,80h75.338A201.716,201.716,0,0,0,390.1,120.434l-24,36A7.986,7.986,0,0,1,359.437,160H323.1l12.489-37.47Zm-47.4-38.249q-4.151,8.343-9.007,16.1V80q0-2.16.186-4.2A31.786,31.786,0,0,0,273.007,79.221ZM392,80V95.326Q387.376,87.937,383.389,80Zm32,64a16.019,16.019,0,0,1-16,16V128A16.018,16.018,0,0,1,424,144ZM264,32h88a40.071,40.071,0,0,1,39.2,32H280a16.019,16.019,0,0,1-16-16ZM232,144a16.018,16.018,0,0,1,16-16v32A16.019,16.019,0,0,1,232,144Zm32,73.375V146.422l12.594,18.891A23.953,23.953,0,0,0,296.563,176h62.874a23.952,23.952,0,0,0,19.969-10.688L392,146.422v70.951A46.628,46.628,0,0,1,345.373,264H310.627A46.628,46.628,0,0,1,264,217.373ZM310.627,280h34.746a62.9,62.9,0,0,0,16.828-2.294,24.058,24.058,0,0,0,10.675,11.247,47.956,47.956,0,0,1-89.752,0A24.056,24.056,0,0,0,293.8,277.706,62.9,62.9,0,0,0,310.627,280ZM70.687,480a10.246,10.246,0,0,1-10.063-8.073L32.153,343.811A6.418,6.418,0,0,1,38.417,336H216.963a10.369,10.369,0,0,1,10.141,8.313l24.671,123.356A10.308,10.308,0,0,1,241.667,480ZM328,480H265.876a26.223,26.223,0,0,0,1.589-15.469l-.106-.531H328Zm128-88h24v16H454.179l1.23-16Zm-17.869,16H377.87l-1.231-16h62.722ZM400,448H380.948L379.1,424h22.275C400.488,426.5,400,448,400,448Zm-17.822,16H400s.488,13.5,1.376,16H383.409ZM480,480H424a8.009,8.009,0,0,1-8-8V432a8.009,8.009,0,0,1,8-8h56ZM448,336a8.009,8.009,0,0,1,8-8,23.872,23.872,0,0,0,14.548-4.93A39.777,39.777,0,0,1,480,348.88V376H464V352a8,8,0,0,0-8-8h-8Zm0,24v16H368V360Zm-88-16a8,8,0,0,0-8,8v32a8,8,0,0,0,8,8h.592l6.769,88H344V456a8,8,0,0,0-8-8H264.159L242.793,341.176A26.411,26.411,0,0,0,216.963,320H188.346a40.106,40.106,0,0,1,17.345-9.77L267.8,293.667a63.82,63.82,0,0,0,100.59,27.839C368.142,323.639,368,344,368,344Z"/><path d="M292,120a12,12,0,1,0,12,12A12.013,12.013,0,0,0,292,120Z"/><path d="M364,144a12,12,0,1,0-12-12A12.013,12.013,0,0,0,364,144Z"/><path d="M354.319,199.656l-4.638-15.312a99.1,99.1,0,0,1-28.747,4.216H304v16h16.934A115.037,115.037,0,0,0,354.319,199.656Z"/></g></svg>
